<svg width="30" height="80" viewBox="0 0 30 80" fill="none" xmlns="http://www.w3.org/2000/svg">
<path d="M25.6899 0C26.5398 0 27.3139 0.490946 27.6762 1.25977C27.779 1.47812 27.8448 1.71227 27.8715 1.95215L29.4985 16.5469L29.9487 21.2002C30.02 21.9376 30.0169 22.6803 29.9389 23.417L29.6391 26.248C29.5455 27.132 29.3452 28.0012 29.0424 28.8369L28.3745 30.6826C27.6526 32.6751 26.3702 34.417 24.6821 35.6982L23.5297 36.5723C22.6807 37.2166 21.7424 37.7349 20.7446 38.1094L18.8647 38.8145C18.4221 38.9805 17.9713 39.116 17.5154 39.2223C17.0347 39.3343 16.6733 39.7491 16.6733 40.2426V72.5077C16.6733 72.8565 16.855 73.1801 17.1528 73.3616L25.0027 78.1461C25.8656 78.6721 25.4928 80 24.4823 80H5.52832C4.51776 80 4.14496 78.6721 5.00787 78.1461L12.848 73.3675C13.1458 73.186 13.3276 72.8624 13.3276 72.5136V40.2427C13.3276 39.7491 12.9661 39.3343 12.4854 39.2224C12.0292 39.1161 11.5781 38.9807 11.1352 38.8145L9.25531 38.1094C8.25748 37.7349 7.31913 37.2166 6.47015 36.5723L5.31879 35.6982C3.63058 34.417 2.34831 32.6752 1.6264 30.6826L0.957458 28.8369C0.654701 28.0012 0.454341 27.132 0.360778 26.248L0.0609737 23.417C-0.0169808 22.6803 -0.0201337 21.9376 0.0512081 21.2002L0.501403 16.5469L2.14008 1.94336C2.16639 1.70905 2.23028 1.48047 2.32953 1.2666C2.68811 0.494419 3.46253 6.32075e-06 4.3139 0H25.6899Z" fill="#66675E" fill-opacity="0.8"/>
</svg>
